<?xml version="1.0" encoding="UTF-8" standalone="no"?>
<!DOCTYPE svg PUBLIC "-//W3C//DTD SVG 1.1//EN" "http://www.w3.org/Graphics/SVG/1.1/DTD/svg11.dtd">
<svg xmlns="http://www.w3.org/2000/svg" version="1.1" viewBox="0.00 0.00 598.00 106.00">
<path fill="#000000" d="
  M 117.75 29.25
  L 51.70 29.25
  A 0.52 0.52 0.0 0 0 51.19 29.67
  L 48.83 41.38
  A 0.52 0.52 0.0 0 0 49.34 42.00
  L 90.66 42.00
  A 0.52 0.52 0.0 0 1 91.16 42.62
  L 87.05 63.08
  A 0.52 0.52 0.0 0 1 86.54 63.50
  L 44.86 63.50
  A 0.52 0.52 0.0 0 0 44.35 63.92
  L 42.00 75.60
  A 0.52 0.52 0.0 0 0 42.51 76.22
  L 83.82 76.22
  A 0.52 0.52 0.0 0 1 84.32 76.84
  L 79.75 99.58
  A 0.52 0.52 0.0 0 1 79.24 100.00
  L 7.96 100.00
  A 0.52 0.52 0.0 0 1 7.46 99.38
  L 26.30 5.64
  A 0.52 0.52 0.0 0 1 26.81 5.22
  L 206.69 5.22
  A 0.52 0.52 0.0 0 1 207.20 5.84
  L 200.06 41.38
  A 0.52 0.52 0.0 0 0 200.57 42.00
  L 220.45 42.00
  A 0.52 0.52 0.0 0 0 220.96 41.58
  L 228.19 5.64
  A 0.52 0.52 0.0 0 1 228.70 5.22
  L 257.54 5.22
  A 0.52 0.52 0.0 0 1 258.04 5.84
  L 239.20 99.58
  A 0.52 0.52 0.0 0 1 238.69 100.00
  L 209.88 100.00
  A 0.52 0.52 0.0 0 1 209.37 99.38
  L 216.46 64.12
  A 0.52 0.52 0.0 0 0 215.95 63.50
  L 196.07 63.50
  A 0.52 0.52 0.0 0 0 195.56 63.92
  L 188.38 99.58
  A 0.52 0.52 0.0 0 1 187.87 100.00
  L 159.12 100.00
  A 0.52 0.52 0.0 0 1 158.62 99.38
  L 172.58 29.87
  A 0.52 0.52 0.0 0 0 172.08 29.25
  L 148.66 29.25
  A 0.52 0.52 0.0 0 0 148.15 29.67
  L 134.09 99.58
  A 0.52 0.52 0.0 0 1 133.58 100.00
  L 104.80 100.00
  A 0.52 0.52 0.0 0 1 104.29 99.38
  L 118.26 29.87
  A 0.52 0.52 0.0 0 0 117.75 29.25
  Z"
/>
<path fill="#000000" d="
  M 349.97 5.22
  L 358.45 5.22
  A 0.62 0.62 0.0 0 1 359.06 5.96
  L 356.84 17.00
  A 0.62 0.62 0.0 0 1 356.23 17.50
  L 347.75 17.50
  A 0.62 0.62 0.0 0 1 347.14 16.76
  L 349.36 5.72
  A 0.62 0.62 0.0 0 1 349.97 5.22
  Z"
/>
<path fill="#000000" d="
  M 375.15 5.24
  L 383.63 5.24
  A 0.62 0.62 0.0 0 1 384.24 5.98
  L 382.02 17.03
  A 0.62 0.62 0.0 0 1 381.41 17.53
  L 372.93 17.53
  A 0.62 0.62 0.0 0 1 372.32 16.79
  L 374.54 5.74
  A 0.62 0.62 0.0 0 1 375.15 5.24
  Z"
/>
<path fill="#000000" d="
  M 466.95 5.24
  L 475.63 5.24
  A 0.54 0.54 0.0 0 1 476.16 5.89
  L 473.91 17.10
  A 0.54 0.54 0.0 0 1 473.38 17.53
  L 464.70 17.53
  A 0.54 0.54 0.0 0 1 464.17 16.88
  L 466.42 5.67
  A 0.54 0.54 0.0 0 1 466.95 5.24
  Z"
/>
<path fill="#000000" d="
  M 558.33 40.12
  Q 559.93 39.18 561.42 38.22
  C 576.43 28.52 596.91 36.33 593.54 56.80
  Q 592.56 62.78 584.97 99.72
  A 0.33 0.32 5.3 0 1 584.65 99.98
  L 575.46 99.98
  A 0.23 0.23 0.0 0 1 575.24 99.70
  Q 582.76 62.24 583.80 56.56
  C 586.04 44.32 573.95 40.33 564.66 44.75
  C 556.62 48.56 554.43 56.43 552.76 64.76
  Q 549.18 82.66 545.84 99.70
  A 0.34 0.34 0.0 0 1 545.51 99.97
  L 536.27 99.97
  A 0.19 0.19 0.0 0 1 536.08 99.75
  L 555.03 5.47
  A 0.33 0.33 0.0 0 1 555.35 5.22
  L 564.51 5.22
  A 0.24 0.24 0.0 0 1 564.75 5.50
  L 557.85 39.78
  A 0.32 0.32 0.0 0 0 558.33 40.12
  Z"
/>
<path fill="#000000" d="
  M 415.44 41.18
  C 416.27 40.69 417.49 39.13 418.58 38.45
  C 427.69 32.70 438.74 32.19 446.42 40.01
  A 0.56 0.55 47.5 0 1 446.39 40.81
  L 439.40 47.09
  A 0.85 0.85 0.0 0 1 438.17 46.99
  Q 435.14 43.22 430.63 42.93
  C 423.21 42.45 416.41 47.79 413.20 54.38
  Q 411.78 57.30 410.58 63.53
  Q 408.60 73.70 403.36 99.73
  A 0.31 0.30 -84.2 0 1 403.06 99.98
  L 393.74 99.98
  A 0.19 0.19 0.0 0 1 393.56 99.75
  L 406.16 37.08
  A 2.67 2.66 -84.3 0 1 408.77 34.94
  L 414.34 34.94
  A 1.50 1.50 0.0 0 1 415.81 36.74
  L 414.98 40.85
  A 0.31 0.31 0.0 0 0 415.44 41.18
  Z"
/>
<path fill="#000000" d="
  M 517.69 84.74
  A 0.23 0.23 0.0 0 1 518.04 84.73
  L 523.90 91.26
  A 0.28 0.28 0.0 0 1 523.89 91.65
  Q 511.92 103.32 495.64 100.09
  C 483.46 97.67 478.61 86.90 479.23 74.87
  C 480.37 52.60 493.65 29.78 519.26 34.93
  Q 527.03 36.50 531.81 43.81
  A 0.37 0.36 -38.3 0 1 531.75 44.27
  L 525.13 50.21
  A 0.28 0.28 0.0 0 1 524.70 50.15
  Q 520.19 42.95 512.29 42.86
  C 502.08 42.75 494.79 51.14 491.71 60.49
  C 489.67 66.68 487.91 75.23 489.38 81.86
  C 491.23 90.22 499.28 93.75 507.18 91.62
  Q 513.46 89.93 517.69 84.74
  Z"
/>
<path fill="#000000" d="
  M 320.10 43.12
  L 277.87 90.87
  A 0.38 0.38 0.0 0 0 278.15 91.50
  L 310.89 91.50
  A 0.38 0.38 0.0 0 1 311.26 91.95
  L 309.70 99.69
  A 0.38 0.38 0.0 0 1 309.33 100.00
  L 264.08 100.00
  A 0.38 0.38 0.0 0 1 263.71 99.55
  L 265.23 92.00
  A 0.38 0.38 0.0 0 1 265.32 91.82
  L 307.51 44.13
  A 0.38 0.38 0.0 0 0 307.23 43.50
  L 276.38 43.50
  A 0.38 0.38 0.0 0 1 276.01 43.05
  L 277.57 35.31
  A 0.38 0.38 0.0 0 1 277.94 35.00
  L 321.33 35.00
  A 0.38 0.38 0.0 0 1 321.70 35.46
  L 320.19 42.94
  A 0.38 0.38 0.0 0 1 320.10 43.12
  Z"
/>
<path fill="#000000" d="
  M 363.30 94.52
  Q 363.23 94.54 361.56 95.88
  C 355.76 100.51 347.88 101.75 340.61 100.13
  C 330.29 97.83 326.22 87.80 328.02 78.00
  Q 329.31 71.01 336.46 35.27
  A 0.34 0.34 0.0 0 1 336.79 35.00
  L 345.98 35.00
  A 0.21 0.21 0.0 0 1 346.19 35.25
  Q 342.76 52.51 338.73 72.57
  Q 337.61 78.14 337.49 79.92
  C 337.08 86.18 340.64 91.38 347.26 92.03
  C 357.58 93.04 365.40 85.52 367.45 75.69
  Q 371.79 54.93 375.53 35.30
  A 0.37 0.36 5.8 0 1 375.89 35.01
  L 385.41 35.01
  A 0.18 0.18 0.0 0 1 385.59 35.22
  L 372.95 98.06
  A 2.45 2.44 5.6 0 1 370.55 100.03
  L 363.91 100.03
  A 0.96 0.96 0.0 0 1 363.12 98.53
  Q 363.73 97.62 363.89 94.99
  A 0.46 0.46 0.0 0 0 363.30 94.52
  Z"
/>
<path fill="#000000" d="
  M 456.81 100.03
  L 448.10 100.03
  A 0.48 0.48 0.0 0 1 447.63 99.46
  L 460.50 35.40
  A 0.48 0.48 0.0 0 1 460.97 35.01
  L 469.68 35.01
  A 0.48 0.48 0.0 0 1 470.15 35.58
  L 457.28 99.64
  A 0.48 0.48 0.0 0 1 456.81 100.03
  Z"
/>
</svg>
