<?xml version="1.0" encoding="UTF-8" standalone="no"?>
<!DOCTYPE svg PUBLIC "-//W3C//DTD SVG 1.1//EN" "http://www.w3.org/Graphics/SVG/1.1/DTD/svg11.dtd">
<svg xmlns="http://www.w3.org/2000/svg" version="1.1" viewBox="0.00 0.00 417.00 351.00">
<path fill="#ffffff" d="
  M 219.49 288.82
  C 221.50 290.56 224.29 292.11 226.78 294.13
  C 244.64 308.60 264.67 320.69 285.76 329.15
  Q 298.07 334.08 309.30 335.79
  Q 313.52 336.43 318.46 335.60
  C 330.83 333.55 339.29 325.98 342.17 313.45
  Q 342.32 312.82 343.34 307.97
  C 344.25 303.70 344.35 298.51 343.79 294.82
  Q 342.89 288.87 342.96 288.52
  Q 343.16 287.40 342.57 284.16
  C 341.82 280.08 341.75 276.13 340.15 272.35
  A 1.22 1.22 0.0 0 1 341.06 270.68
  L 346.55 269.68
  A 1.49 1.42 -60.4 0 0 346.88 269.58
  Q 349.64 268.42 351.10 266.48
  A 1.10 1.10 0.0 0 1 352.96 266.65
  Q 353.83 268.39 353.88 269.32
  Q 354.42 277.95 355.57 288.39
  C 356.27 294.85 356.45 302.13 355.63 308.56
  Q 354.98 313.58 354.60 315.12
  Q 351.91 326.21 347.56 332.37
  Q 337.89 346.02 321.00 347.88
  C 314.38 348.60 306.33 348.49 299.52 346.79
  Q 292.17 344.95 285.12 342.37
  Q 256.09 331.71 230.93 313.54
  Q 219.88 305.57 210.47 297.14
  A 0.92 0.91 -40.2 0 0 209.38 297.05
  C 207.06 298.48 205.29 300.38 203.31 302.07
  Q 175.24 326.02 141.67 339.66
  Q 135.89 342.01 128.15 344.31
  Q 119.17 346.98 114.26 347.75
  Q 110.58 348.34 96.61 347.91
  A 2.67 2.66 -33.8 0 1 95.89 347.77
  Q 95.07 347.49 92.05 346.83
  Q 87.05 345.73 79.55 341.94
  Q 70.19 337.20 65.74 327.51
  Q 61.67 318.64 61.11 308.99
  Q 60.61 300.34 61.20 289.97
  Q 61.71 281.05 63.58 271.11
  Q 66.71 254.40 72.89 235.69
  A 1.40 1.40 0.0 0 0 72.02 233.93
  Q 53.54 227.61 36.43 218.10
  Q 31.32 215.26 26.38 211.56
  Q 19.30 206.26 17.11 203.88
  C 10.51 196.69 5.14 189.01 4.03 180.53
  Q 3.78 178.62 3.94 173.44
  C 4.19 165.06 7.23 158.17 13.00 151.50
  Q 20.44 142.90 29.07 137.60
  Q 52.23 123.39 78.21 116.47
  A 0.64 0.64 0.0 0 0 78.58 115.50
  C 77.31 113.61 77.03 111.06 76.23 109.05
  Q 69.39 91.92 65.76 72.65
  C 65.03 68.80 65.02 65.65 64.13 62.35
  A 3.42 3.29 38.7 0 1 64.02 61.50
  L 64.02 43.52
  A 0.99 0.61 65.4 0 1 64.05 43.28
  Q 64.83 40.02 64.89 39.43
  Q 65.11 37.23 65.27 36.58
  Q 68.54 23.75 75.38 15.34
  Q 81.52 7.80 93.11 4.47
  C 95.45 3.80 97.73 4.20 100.11 3.37
  A 4.45 4.23 33.6 0 1 101.48 3.13
  C 105.72 3.05 108.60 2.90 112.39 3.38
  Q 128.56 5.47 145.20 12.81
  Q 179.94 28.15 208.42 53.75
  A 0.95 0.94 -50.6 0 0 209.80 53.61
  Q 210.23 53.05 212.63 51.13
  C 226.44 40.04 242.87 28.26 260.41 18.96
  Q 279.94 8.60 300.83 4.34
  Q 302.19 4.06 304.79 3.92
  A 9.29 9.02 -51.0 0 0 306.20 3.75
  Q 312.42 2.53 316.03 3.20
  C 318.98 3.75 321.46 3.99 323.27 4.46
  C 336.71 7.98 349.73 19.18 352.60 32.85
  Q 353.65 37.90 353.66 37.96
  Q 356.75 59.21 351.40 80.45
  Q 346.88 98.36 341.15 115.33
  A 1.09 1.09 0.0 0 0 341.89 116.72
  Q 362.62 122.58 381.12 132.51
  Q 386.36 135.33 391.66 139.01
  C 404.96 148.26 413.83 158.16 415.04 174.76
  C 415.27 177.91 414.11 180.77 413.91 183.99
  A 4.22 3.94 -35.9 0 1 413.69 185.11
  Q 409.22 198.06 400.01 205.54
  Q 388.86 214.59 375.99 220.72
  Q 370.93 223.14 360.87 227.21
  A 1.09 1.06 -0.4 0 0 360.29 227.78
  Q 360.03 228.36 360.51 228.98
  Q 360.81 229.37 360.86 230.17
  Q 361.32 238.22 360.92 245.13
  A 5.23 5.21 -29.7 0 1 360.32 247.30
  Q 352.93 261.26 339.12 261.67
  Q 330.79 261.92 324.19 257.86
  C 319.31 254.84 314.11 249.63 312.81 243.75
  A 0.49 0.49 0.0 0 0 312.21 243.37
  Q 294.62 247.40 276.10 249.15
  A 3.75 3.61 32.0 0 0 275.34 249.31
  C 272.28 250.30 269.18 249.85 265.95 250.42
  Q 262.03 251.12 256.50 251.01
  C 253.74 250.95 253.39 253.10 251.93 254.52
  Q 249.61 256.75 244.87 262.41
  Q 243.23 264.37 237.56 270.05
  Q 227.32 280.30 219.47 288.28
  A 0.37 0.37 0.0 0 0 219.49 288.82
  Z
  M 92.60 112.49
  Q 92.70 112.27 93.00 112.20
  Q 105.28 109.43 110.49 108.26
  C 112.30 107.85 114.02 107.95 115.62 107.25
  A 2.89 2.83 -58.9 0 1 116.58 107.00
  C 117.87 106.88 119.34 106.97 121.22 106.61
  Q 140.16 103.02 158.31 102.79
  A 1.14 1.12 -67.3 0 0 159.07 102.47
  C 166.96 94.52 172.95 87.51 180.29 80.14
  Q 194.48 65.87 198.31 62.34
  A 0.53 0.52 -45.3 0 0 198.31 61.57
  Q 191.09 54.94 178.99 46.51
  Q 165.71 37.25 152.13 30.14
  C 141.54 24.60 130.11 19.91 118.55 17.40
  Q 112.96 16.19 111.00 16.02
  Q 104.53 15.45 98.47 16.98
  Q 91.48 18.74 87.42 22.07
  C 78.59 29.32 75.82 41.28 76.37 52.52
  Q 76.91 63.36 77.46 66.03
  Q 79.60 76.43 82.72 87.65
  C 85.16 96.47 88.70 105.41 91.35 112.47
  A 0.67 0.67 0.0 0 0 92.60 112.49
  Z
  M 219.77 63.38
  Q 235.96 77.78 242.93 85.08
  Q 248.98 91.42 254.85 97.27
  Q 256.69 99.10 258.53 101.49
  A 2.70 2.68 72.5 0 0 260.53 102.54
  L 272.60 103.20
  A 1.91 1.39 -27.5 0 1 272.87 103.24
  Q 275.60 103.92 279.87 104.01
  A 5.60 5.52 -37.3 0 1 281.11 104.17
  L 283.37 104.71
  A 5.28 5.03 49.6 0 0 284.72 104.85
  C 287.85 104.79 290.82 105.71 294.00 106.07
  Q 306.45 107.50 317.25 110.09
  Q 323.35 111.56 326.24 112.15
  A 1.87 1.86 -73.0 0 0 328.34 111.03
  Q 337.01 89.87 341.26 65.83
  Q 342.12 61.02 342.04 57.09
  C 341.89 49.77 342.69 42.06 340.36 35.39
  Q 336.05 23.05 323.32 18.02
  Q 316.20 15.21 309.24 16.00
  Q 296.17 17.50 283.48 22.77
  C 261.73 31.81 242.36 44.75 223.36 59.35
  Q 221.51 60.77 219.74 62.73
  A 0.46 0.46 0.0 0 0 219.77 63.38
  Z
  M 238.89 102.06
  A 0.48 0.48 0.0 0 0 239.26 101.28
  Q 236.64 98.12 225.03 85.96
  C 220.56 81.28 214.81 76.65 209.87 71.24
  A 0.93 0.93 0.0 0 0 208.55 71.19
  Q 195.10 83.88 183.71 96.94
  Q 182.91 97.85 181.93 99.16
  Q 180.38 101.23 180.18 101.40
  A 0.70 0.70 0.0 0 0 180.71 102.62
  Q 180.73 102.62 180.99 102.35
  A 0.92 0.91 21.2 0 1 181.66 102.06
  L 238.89 102.06
  Z
  M 295.93 171.75
  Q 285.00 157.43 265.14 130.86
  Q 259.64 123.50 252.87 115.81
  A 2.21 2.19 69.1 0 0 251.22 115.06
  L 167.66 115.06
  A 2.43 2.41 -71.1 0 0 165.74 116.01
  C 163.03 119.56 159.97 122.52 157.10 126.33
  Q 141.03 147.64 132.47 159.01
  Q 128.68 164.04 124.12 170.11
  Q 123.17 171.38 122.59 172.73
  A 1.09 1.08 -48.9 0 0 122.65 173.73
  Q 138.32 199.52 149.63 213.89
  C 158.37 225.00 164.15 232.40 170.12 238.65
  A 1.23 1.21 65.8 0 0 171.09 239.03
  C 177.35 238.56 183.75 239.95 189.69 239.96
  Q 232.19 240.00 239.75 239.93
  Q 242.75 239.90 247.36 238.96
  A 1.48 1.43 13.8 0 0 248.17 238.49
  Q 274.57 207.57 295.97 172.47
  A 0.64 0.63 42.3 0 0 295.93 171.75
  Z
  M 303.64 159.18
  Q 313.63 142.74 321.86 125.07
  A 0.40 0.40 0.0 0 0 321.59 124.51
  Q 321.07 124.38 307.33 121.59
  Q 301.88 120.49 288.25 118.52
  Q 283.17 117.79 272.86 116.40
  A 0.46 0.46 0.0 0 0 272.53 117.24
  Q 273.18 117.69 273.99 118.76
  C 285.60 134.16 293.32 144.72 301.67 157.28
  Q 301.99 157.76 302.12 158.47
  Q 302.24 159.11 302.71 159.41
  A 0.68 0.68 0.0 0 0 303.64 159.18
  Z
  M 144.27 116.96
  C 133.67 117.64 122.20 119.91 113.28 121.49
  Q 104.43 123.06 96.94 125.14
  A 0.72 0.72 0.0 0 0 96.50 126.18
  L 114.55 159.18
  A 0.56 0.56 0.0 0 0 115.51 159.21
  Q 123.52 146.99 130.21 137.69
  Q 142.60 120.50 144.67 117.69
  A 0.46 0.46 0.0 0 0 144.27 116.96
  Z
  M 334.28 212.04
  Q 343.15 211.35 351.75 216.26
  A 3.28 3.27 49.2 0 0 354.57 216.47
  Q 368.95 210.97 382.22 202.16
  C 389.51 197.32 394.99 192.41 398.99 185.27
  C 404.92 174.68 399.97 163.42 391.30 155.96
  Q 387.29 152.50 380.95 148.24
  Q 375.07 144.29 369.86 141.67
  Q 355.77 134.57 339.69 129.59
  Q 337.69 128.97 335.69 128.61
  A 0.68 0.68 0.0 0 0 334.95 129.02
  Q 333.93 131.45 328.78 142.08
  Q 320.95 158.23 312.12 172.41
  A 1.39 1.39 0.0 0 0 312.15 173.93
  C 318.06 182.51 323.85 192.70 328.73 202.72
  Q 332.16 209.75 333.39 211.61
  A 0.97 0.96 70.5 0 0 334.28 212.04
  Z
  M 83.72 128.69
  C 75.66 130.87 66.71 134.14 56.36 138.39
  Q 43.59 143.62 30.87 153.09
  Q 24.47 157.86 20.34 164.67
  C 13.30 176.27 20.01 188.28 28.94 196.02
  Q 36.86 202.89 48.88 209.35
  Q 61.54 216.15 76.88 221.84
  A 0.69 0.68 -68.0 0 0 77.74 221.47
  C 85.18 204.41 95.37 188.13 106.17 172.84
  A 1.47 1.46 48.2 0 0 106.25 171.28
  Q 104.48 168.11 97.73 156.28
  Q 89.64 142.11 83.98 128.81
  A 0.22 0.22 0.0 0 0 83.72 128.69
  Z
  M 149.38 237.25
  A 0.28 0.28 0.0 0 0 149.65 236.80
  Q 144.95 231.28 140.09 224.51
  Q 130.64 211.30 118.62 191.98
  Q 118.03 191.04 115.00 185.40
  A 0.65 0.65 0.0 0 0 113.96 185.25
  C 113.10 186.12 112.49 187.48 111.99 188.23
  Q 99.93 206.61 91.19 225.32
  A 1.32 1.32 0.0 0 0 92.07 227.16
  Q 104.04 230.11 105.19 230.41
  Q 110.64 231.85 118.40 233.10
  Q 123.89 233.99 134.13 235.72
  C 136.27 236.08 138.77 235.79 140.65 236.45
  C 143.29 237.37 146.75 236.68 149.38 237.25
  Z
  M 270.31 236.05
  A 0.76 0.75 3.8 0 0 271.23 237.09
  Q 272.96 236.54 276.02 236.20
  Q 281.96 235.53 289.79 234.24
  Q 298.78 232.75 307.75 231.01
  Q 310.20 230.53 312.64 229.82
  A 2.37 2.36 10.2 0 0 313.86 228.98
  Q 314.45 228.19 315.74 225.77
  Q 317.57 222.35 320.73 219.28
  A 1.48 1.47 -33.4 0 0 321.07 217.66
  Q 318.54 211.45 316.68 207.82
  Q 310.12 195.08 304.39 185.30
  A 0.44 0.44 0.0 0 0 303.60 185.38
  Q 303.09 186.78 302.31 188.08
  Q 289.70 208.79 272.50 232.75
  Q 270.65 235.34 270.31 236.05
  Z
  M 198.57 287.43
  Q 179.64 271.40 163.94 252.74
  A 4.44 4.43 70.0 0 0 160.54 251.15
  Q 153.58 251.15 149.04 250.37
  C 146.14 249.88 143.35 250.27 140.83 249.71
  Q 138.52 249.20 135.01 248.78
  Q 109.09 245.72 85.76 238.93
  A 0.28 0.27 -71.2 0 0 85.42 239.10
  Q 76.34 265.26 73.66 292.90
  C 73.55 294.07 73.13 295.24 73.06 296.52
  Q 72.45 307.17 74.76 315.79
  Q 76.78 323.31 82.19 327.89
  Q 88.93 333.60 97.99 335.47
  Q 104.66 336.85 115.51 334.49
  Q 126.04 332.20 134.21 328.93
  C 147.44 323.64 161.81 316.21 174.13 307.53
  C 183.24 301.13 191.08 295.46 198.60 288.30
  A 0.59 0.58 43.1 0 0 198.57 287.43
  Z
  M 183.63 253.03
  Q 188.64 259.26 194.11 264.64
  Q 198.57 269.02 208.03 278.44
  A 1.29 1.29 0.0 0 0 209.85 278.44
  L 235.09 253.21
  A 0.47 0.47 0.0 0 0 234.70 252.41
  Q 230.87 252.86 227.75 252.88
  Q 208.11 252.99 196.51 252.62
  A 5.37 4.95 40.2 0 0 195.60 252.66
  C 191.64 253.18 187.84 252.18 183.83 252.55
  A 0.30 0.29 67.8 0 0 183.63 253.03
  Z"
/>
<path fill="#ffffff" d="
  M 214.84 148.18
  Q 232.89 151.47 238.71 169.71
  Q 239.66 172.70 239.98 176.05
  Q 240.27 178.94 239.52 182.45
  Q 236.36 197.25 222.74 205.03
  C 218.68 207.34 215.54 208.14 210.64 208.34
  Q 200.79 208.76 194.32 204.25
  Q 180.87 194.86 179.90 179.80
  C 179.14 167.93 183.76 157.77 193.89 151.66
  Q 198.30 149.01 204.07 148.12
  Q 209.74 147.25 214.84 148.18
  Z"
/>
</svg>
