<?xml version="1.0" encoding="UTF-8" standalone="no"?>
<!DOCTYPE svg PUBLIC "-//W3C//DTD SVG 1.1//EN" "http://www.w3.org/Graphics/SVG/1.1/DTD/svg11.dtd">
<svg xmlns="http://www.w3.org/2000/svg" version="1.1" viewBox="0.00 0.00 414.00 414.00">
<path fill="#005826" d="
  M 413.81 207.22
  A 206.24 206.24 0.0 0 1 207.57 413.46
  A 206.24 206.24 0.0 0 1 1.33 207.22
  A 206.24 206.24 0.0 0 1 207.57 0.98
  A 206.24 206.24 0.0 0 1 413.81 207.22
  Z
  M 400.09 207.20
  A 192.48 192.48 0.0 0 0 207.61 14.72
  A 192.48 192.48 0.0 0 0 15.13 207.20
  A 192.48 192.48 0.0 0 0 207.61 399.68
  A 192.48 192.48 0.0 0 0 400.09 207.20
  Z"
/>
<path fill="#005826" d="
  M 394.64 207.30
  A 187.05 187.05 0.0 0 1 207.59 394.35
  A 187.05 187.05 0.0 0 1 20.54 207.30
  A 187.05 187.05 0.0 0 1 207.59 20.25
  A 187.05 187.05 0.0 0 1 394.64 207.30
  Z
  M 390.55 207.16
  A 182.95 182.95 0.0 0 0 207.60 24.21
  A 182.95 182.95 0.0 0 0 24.65 207.16
  A 182.95 182.95 0.0 0 0 207.60 390.11
  A 182.95 182.95 0.0 0 0 390.55 207.16
  Z"
/>
<path fill="#005826" d="
  M 267.23 99.27
  A 0.59 0.58 76.6 0 1 266.74 100.07
  Q 257.96 100.91 250.43 98.18
  C 246.41 96.72 241.59 80.04 239.91 74.51
  A 0.75 0.75 0.0 0 0 238.59 74.28
  C 235.73 78.20 230.61 83.78 225.80 85.67
  A 3.65 3.65 0.0 0 1 222.35 85.24
  C 218.90 82.77 215.58 80.96 214.45 78.60
  A 0.69 0.68 84.6 0 1 215.24 77.64
  Q 227.17 80.79 234.03 69.45
  A 0.98 0.97 -70.3 0 0 233.34 67.98
  C 229.71 67.45 223.94 67.29 223.04 63.57
  C 222.06 59.51 222.04 52.77 228.56 55.49
  Q 232.76 57.24 236.88 58.30
  A 1.67 1.67 0.0 0 0 238.95 56.95
  L 240.41 48.08
  A 1.38 1.36 -11.3 0 1 241.05 47.13
  Q 242.76 46.09 245.08 45.64
  C 248.08 45.07 250.40 48.83 251.10 51.13
  A 1.61 1.59 -43.2 0 1 251.06 52.20
  L 249.37 56.44
  A 1.59 1.58 14.2 0 0 250.66 58.60
  Q 253.53 58.94 255.75 58.01
  A 2.47 2.46 -26.3 0 1 258.84 59.05
  L 260.43 61.80
  A 1.84 1.84 0.0 0 1 259.38 64.48
  Q 252.33 66.62 247.51 66.46
  Q 247.16 66.44 246.22 66.78
  A 1.83 1.83 0.0 0 0 245.04 68.87
  Q 247.14 79.13 253.74 88.03
  C 257.62 93.28 260.20 94.62 266.50 98.49
  Q 267.06 98.84 267.23 99.27
  Z"
/>
<path fill="#005826" d="
  M 181.36 78.75
  Q 177.08 80.80 175.59 84.85
  A 1.53 1.50 86.4 0 1 174.89 85.66
  C 171.05 87.68 166.33 89.75 165.05 92.10
  Q 164.22 93.63 162.89 96.38
  A 1.88 1.81 87.5 0 1 162.22 97.14
  Q 160.66 98.13 159.31 98.15
  A 1.28 1.28 0.0 0 1 158.59 97.95
  L 154.56 95.33
  A 2.54 2.53 17.2 0 1 153.40 93.15
  Q 153.54 86.57 149.86 79.69
  A 2.01 1.85 62.6 0 1 150.58 77.03
  C 154.90 74.84 158.45 82.20 159.90 85.30
  A 1.15 1.14 -29.2 0 0 161.57 85.77
  L 165.92 82.93
  A 1.53 1.52 60.7 0 0 166.46 80.99
  L 155.24 57.55
  A 1.83 1.65 -65.1 0 1 155.09 57.06
  C 154.71 54.40 157.01 52.14 159.75 52.57
  Q 162.60 53.02 164.60 54.61
  A 1.52 1.51 -76.4 0 1 165.13 55.48
  L 165.85 59.15
  A 6.43 6.42 27.8 0 0 166.24 60.41
  L 172.57 75.33
  A 1.66 1.65 57.4 0 0 175.20 75.91
  L 178.73 72.73
  A 3.21 3.20 62.3 0 0 179.70 69.61
  L 178.44 64.30
  A 1.57 1.56 -14.9 0 1 179.53 62.43
  Q 186.57 60.39 188.33 67.47
  Q 189.89 73.77 191.18 78.51
  A 1.77 1.76 -41.8 0 1 191.11 79.65
  L 188.89 85.25
  A 1.37 1.37 0.0 0 1 186.68 85.74
  Q 184.06 83.25 182.39 79.15
  A 0.76 0.75 65.8 0 0 181.36 78.75
  Z"
/>
<path fill="#005826" d="
  M 102.47 89.07
  Q 105.76 85.94 106.24 84.94
  Q 108.35 80.55 108.38 80.50
  A 2.39 2.36 89.7 0 1 109.32 79.54
  C 111.85 78.14 118.08 77.54 119.41 81.02
  C 119.88 82.23 118.42 85.55 118.62 87.51
  C 118.85 89.73 119.02 90.49 121.21 91.33
  Q 123.76 92.32 123.69 95.65
  Q 123.65 97.43 121.90 99.41
  Q 119.57 102.04 118.67 105.96
  A 1.70 1.70 0.0 0 0 119.10 107.51
  Q 127.90 116.69 135.93 125.56
  Q 139.17 129.13 140.07 133.37
  A 1.92 1.74 78.4 0 1 138.74 135.62
  C 136.37 136.07 132.35 133.07 130.58 131.42
  Q 121.13 122.66 113.20 115.06
  A 0.52 0.52 0.0 0 0 112.35 115.24
  L 110.22 120.59
  A 2.94 2.89 -38.2 0 0 110.04 122.01
  L 110.35 124.40
  A 1.43 1.42 -31.5 0 1 110.11 125.39
  Q 108.12 128.32 105.09 127.23
  C 102.79 126.40 101.74 126.12 98.56 125.53
  A 3.02 2.99 82.9 0 1 96.35 123.79
  Q 94.58 119.83 91.55 115.99
  Q 88.21 111.77 93.25 108.93
  A 3.33 3.32 -7.3 0 0 94.84 106.88
  L 97.04 98.48
  A 0.93 0.93 0.0 0 0 96.74 97.53
  L 89.07 91.21
  A 1.09 1.07 -78.2 0 1 88.71 90.65
  Q 87.18 84.49 92.91 83.17
  Q 95.22 82.64 96.48 83.99
  Q 99.67 87.40 101.39 89.06
  A 0.79 0.78 45.3 0 0 102.47 89.07
  Z
  M 112.07 98.38
  Q 113.80 94.66 110.88 90.22
  A 1.46 1.46 0.0 0 0 108.48 90.15
  L 106.98 92.17
  A 2.38 2.38 0.0 0 0 107.17 95.23
  L 110.40 98.65
  A 1.03 1.03 0.0 0 0 112.07 98.38
  Z
  M 102.03 105.19
  L 98.72 110.15
  A 0.27 0.27 0.0 0 0 98.79 110.52
  L 101.27 112.18
  A 3.33 2.85 33.8 0 0 105.62 111.66
  L 106.07 111.00
  A 3.33 2.85 33.8 0 0 104.88 106.78
  L 102.41 105.12
  A 0.27 0.27 0.0 0 0 102.03 105.19
  Z"
/>
<path fill="#005826" d="
  M 301.17 115.43
  Q 296.28 113.10 292.40 112.87
  A 4.12 4.11 -8.2 0 1 288.77 110.16
  L 288.55 109.54
  A 1.57 1.57 0.0 0 1 290.10 107.43
  C 298.29 107.80 308.89 114.00 314.94 118.41
  A 0.39 0.39 0.0 0 0 315.54 118.19
  L 315.66 117.76
  A 1.11 1.10 -66.6 0 0 315.19 116.55
  L 303.52 109.04
  A 2.89 2.64 -19.0 0 0 302.76 108.71
  L 298.07 107.46
  A 0.33 0.29 -21.7 0 1 297.96 107.42
  L 290.58 104.13
  A 3.35 3.35 0.0 0 0 287.12 104.58
  C 285.11 106.19 278.76 110.49 276.37 109.64
  C 273.03 108.44 274.90 104.62 276.78 103.13
  Q 279.72 100.81 282.16 97.34
  Q 282.87 96.33 285.69 96.13
  A 1.00 0.98 66.1 0 1 286.50 96.45
  C 287.82 97.85 289.12 101.19 291.63 98.62
  Q 296.55 93.62 300.33 86.13
  Q 301.42 83.97 303.31 84.67
  A 1.10 1.10 0.0 0 1 304.00 85.44
  C 304.74 88.51 303.91 91.52 301.52 94.03
  Q 299.46 96.20 296.55 100.00
  A 0.83 0.82 34.2 0 0 296.79 101.22
  L 297.14 101.42
  A 0.74 0.73 -56.2 0 0 298.10 101.22
  L 310.12 85.20
  A 0.97 0.97 0.0 0 1 311.61 85.12
  C 312.49 86.06 313.57 87.20 315.56 87.68
  Q 318.06 88.28 318.67 91.23
  A 1.72 1.72 0.0 0 0 321.54 92.14
  L 324.20 89.63
  A 1.65 1.64 -39.6 0 1 326.67 89.86
  Q 328.09 91.84 327.72 94.96
  A 1.72 1.70 -5.0 0 1 326.50 96.40
  L 322.62 97.54
  A 1.60 1.58 1.4 0 0 321.57 98.53
  Q 319.89 103.30 323.66 105.32
  A 0.71 0.71 0.0 0 0 324.66 104.46
  L 323.07 100.07
  A 0.96 0.96 0.0 0 1 324.38 98.88
  L 330.44 101.77
  A 1.87 1.87 0.0 0 1 331.39 102.82
  Q 332.23 105.12 331.32 107.69
  A 1.90 1.89 -3.2 0 1 330.35 108.77
  L 320.36 113.55
  A 0.88 0.88 0.0 0 0 320.27 115.08
  Q 321.11 115.61 322.38 116.32
  C 324.66 117.60 325.26 122.05 325.20 124.58
  A 1.45 1.42 71.0 0 1 324.70 125.63
  C 321.43 128.44 317.33 124.35 314.36 121.91
  A 2.96 2.95 -38.0 0 0 311.21 121.53
  L 310.10 122.06
  A 1.88 1.87 -49.5 0 1 308.74 122.17
  C 306.38 121.48 303.89 121.08 301.80 122.10
  A 0.83 0.82 50.4 0 0 301.67 123.50
  Q 305.07 126.07 308.78 127.67
  Q 310.83 128.55 311.08 129.96
  C 311.38 131.64 311.01 136.22 308.28 135.91
  Q 306.71 135.74 305.68 134.53
  Q 303.49 131.98 300.47 129.39
  A 1.68 1.68 0.0 0 0 298.06 129.63
  C 296.81 131.24 295.48 133.32 293.81 134.52
  Q 288.87 138.06 283.67 138.00
  A 2.94 2.93 -1.1 0 1 280.78 135.23
  Q 280.49 129.79 278.29 125.00
  A 0.54 0.53 -84.4 0 1 279.09 124.34
  L 285.71 129.25
  A 2.25 2.24 41.3 0 0 288.59 129.07
  L 291.02 126.78
  A 1.54 1.53 44.0 0 0 290.98 124.52
  C 288.65 122.46 285.91 121.37 283.12 120.10
  C 279.94 118.65 279.44 116.51 279.22 113.29
  A 1.41 1.41 0.0 0 1 280.89 111.81
  Q 282.68 112.15 284.83 113.69
  Q 289.41 116.98 292.81 119.16
  A 0.75 0.75 0.0 0 0 293.92 118.81
  L 294.54 117.24
  A 1.40 1.40 0.0 0 1 296.29 116.44
  Q 299.00 117.37 301.08 116.69
  A 0.68 0.68 0.0 0 0 301.17 115.43
  Z
  M 314.2003 91.8976
  A 3.20 1.37 -43.0 0 0 310.9257 93.0780
  A 3.20 1.37 -43.0 0 0 309.5197 96.2624
  A 3.20 1.37 -43.0 0 0 312.7943 95.0820
  A 3.20 1.37 -43.0 0 0 314.2003 91.8976
  Z
  M 307.8676 100.4917
  A 2.98 1.55 -26.9 0 0 304.5087 100.4577
  A 2.98 1.55 -26.9 0 0 302.5524 103.1883
  A 2.98 1.55 -26.9 0 0 305.9113 103.2223
  A 2.98 1.55 -26.9 0 0 307.8676 100.4917
  Z
  M 314.4072 100.3322
  A 0.92 0.77 -33.5 0 0 313.2150 100.1979
  A 0.92 0.77 -33.5 0 0 312.8728 101.3478
  A 0.92 0.77 -33.5 0 0 314.0650 101.4821
  A 0.92 0.77 -33.5 0 0 314.4072 100.3322
  Z
  M 317.7562 104.0112
  A 2.01 1.02 -135.1 0 0 318.4600 106.1525
  A 2.01 1.02 -135.1 0 0 320.6038 106.8488
  A 2.01 1.02 -135.1 0 0 319.9000 104.7075
  A 2.01 1.02 -135.1 0 0 317.7562 104.0112
  Z
  M 309.93 107.84
  A 0.74 0.74 0.0 0 0 309.19 107.10
  A 0.74 0.74 0.0 0 0 308.45 107.84
  A 0.74 0.74 0.0 0 0 309.19 108.58
  A 0.74 0.74 0.0 0 0 309.93 107.84
  Z
  M 315.05 109.21
  A 0.89 0.89 0.0 0 0 314.16 108.32
  A 0.89 0.89 0.0 0 0 313.27 109.21
  A 0.89 0.89 0.0 0 0 314.16 110.10
  A 0.89 0.89 0.0 0 0 315.05 109.21
  Z"
/>
<path fill="#005826" d="
  M 253.93 275.62
  A 0.62 0.61 7.3 0 0 253.28 276.12
  Q 252.49 280.27 249.84 285.11
  C 233.90 314.23 194.77 318.95 172.36 294.85
  Q 165.31 287.27 162.06 277.63
  A 2.15 2.14 -6.3 0 0 160.24 276.18
  Q 134.47 273.61 117.81 253.98
  C 97.17 229.67 99.12 192.23 122.15 170.12
  Q 138.38 154.53 160.97 152.70
  A 1.09 1.08 -82.7 0 0 161.92 151.96
  C 176.86 107.49 238.18 107.69 253.35 152.05
  A 1.00 1.00 0.0 0 0 254.22 152.73
  Q 276.48 154.40 292.53 169.69
  C 319.02 194.91 318.00 237.71 289.75 261.69
  Q 276.37 273.05 258.17 275.88
  A 2.16 2.09 -46.0 0 1 257.59 275.90
  L 253.93 275.62
  Z
  M 112.08 214.40
  Q 112.08 227.76 117.79 238.46
  Q 133.25 267.42 168.03 267.89
  A 0.56 0.55 84.2 0 1 168.57 268.34
  Q 173.39 291.82 195.25 299.67
  Q 200.78 301.66 207.59 301.66
  Q 214.40 301.66 219.93 299.67
  Q 241.80 291.82 246.62 268.34
  A 0.56 0.55 -84.2 0 1 247.16 267.89
  Q 281.94 267.42 297.40 238.46
  Q 303.11 227.76 303.11 214.40
  Q 303.11 201.04 297.40 190.34
  Q 281.94 161.38 247.16 160.91
  A 0.56 0.55 84.2 0 1 246.62 160.46
  Q 241.80 136.98 219.94 129.13
  Q 214.40 127.14 207.60 127.14
  Q 200.79 127.14 195.25 129.13
  Q 173.39 136.98 168.57 160.46
  A 0.56 0.55 -84.2 0 1 168.03 160.91
  Q 133.25 161.38 117.79 190.34
  Q 112.08 201.03 112.08 214.40
  Z"
/>
<path fill="#005826" d="
  M 207.59 131.28
  Q 215.94 131.28 222.69 134.69
  Q 241.12 144.02 242.84 165.06
  A 0.82 0.82 0.0 0 0 243.73 165.81
  Q 250.66 165.23 257.49 166.27
  C 281.07 169.85 298.63 190.61 298.63 214.40
  C 298.63 238.19 281.08 258.96 257.50 262.54
  Q 250.68 263.58 243.75 263.00
  A 0.82 0.82 0.0 0 0 242.86 263.75
  Q 241.14 284.79 222.71 294.13
  Q 215.96 297.54 207.61 297.54
  Q 199.25 297.54 192.51 294.13
  Q 174.07 284.80 172.35 263.76
  A 0.82 0.82 0.0 0 0 171.46 263.01
  Q 164.53 263.59 157.71 262.55
  C 134.12 258.97 116.57 238.21 116.56 214.42
  C 116.56 190.63 134.11 169.87 157.69 166.29
  Q 164.52 165.24 171.45 165.82
  A 0.82 0.82 0.0 0 0 172.34 165.07
  Q 174.05 144.03 192.49 134.70
  Q 199.23 131.28 207.59 131.28
  Z
  M 207.59 239.18
  Q 209.39 239.18 211.00 239.06
  A 0.90 0.89 12.8 0 1 211.84 240.40
  L 210.71 242.37
  A 0.94 0.94 0.0 0 0 211.05 243.65
  L 215.29 246.10
  A 0.50 0.50 0.0 0 0 216.04 245.67
  L 216.04 240.58
  A 1.40 1.39 0.0 0 1 217.44 239.19
  L 225.56 239.19
  A 1.01 1.00 -55.9 0 1 225.93 241.13
  L 224.17 241.84
  A 0.89 0.89 0.0 0 0 223.60 242.67
  L 223.60 268.64
  A 1.40 1.40 0.0 0 0 225.00 270.04
  L 226.89 270.04
  A 1.39 1.39 0.0 0 0 228.28 268.65
  Q 228.20 245.29 228.31 236.28
  Q 228.36 232.86 230.90 229.47
  C 232.13 227.84 234.40 226.82 236.13 225.66
  A 0.27 0.27 0.0 0 0 235.98 225.16
  L 223.19 225.40
  A 1.78 1.78 0.0 0 1 221.38 223.62
  L 221.38 223.55
  A 1.65 1.64 -0.0 0 1 223.03 221.91
  L 261.48 221.90
  A 1.27 1.27 0.0 0 0 262.75 220.62
  L 262.75 220.38
  A 1.19 1.18 -87.6 0 0 261.57 219.09
  L 223.02 219.04
  A 1.61 1.60 1.4 0 1 221.42 217.37
  L 221.42 217.29
  A 1.67 1.66 -89.3 0 1 223.08 215.66
  L 262.69 215.61
  A 1.08 1.07 8.4 0 0 263.72 214.85
  C 267.23 203.22 278.70 195.89 290.78 197.88
  A 0.73 0.73 0.0 0 0 291.56 196.85
  Q 281.47 175.18 258.85 170.12
  C 253.15 168.84 247.77 169.31 240.37 169.28
  A 0.66 0.65 1.0 0 1 239.71 168.61
  C 240.25 149.92 226.58 134.43 207.58 134.43
  C 188.57 134.43 174.91 149.92 175.45 168.61
  A 0.66 0.65 -1.0 0 1 174.79 169.29
  C 167.39 169.32 162.01 168.85 156.31 170.13
  Q 133.69 175.19 123.60 196.87
  A 0.73 0.73 0.0 0 0 124.38 197.90
  C 136.46 195.90 147.94 203.23 151.45 214.86
  A 1.08 1.07 -8.4 0 0 152.48 215.62
  L 192.09 215.66
  A 1.67 1.66 89.3 0 1 193.75 217.29
  L 193.75 217.37
  A 1.61 1.60 -1.4 0 1 192.15 219.04
  L 153.60 219.10
  A 1.19 1.18 87.5 0 0 152.42 220.39
  L 152.42 220.63
  A 1.27 1.27 0.0 0 0 153.69 221.91
  L 192.14 221.91
  A 1.65 1.64 -0.0 0 1 193.79 223.55
  L 193.79 223.62
  A 1.78 1.78 0.0 0 1 191.98 225.40
  L 179.19 225.17
  A 0.27 0.27 0.0 0 0 179.04 225.67
  C 180.77 226.82 183.04 227.84 184.27 229.47
  Q 186.81 232.86 186.86 236.28
  Q 186.97 245.29 186.90 268.65
  A 1.39 1.39 0.0 0 0 188.29 270.04
  L 190.18 270.04
  A 1.40 1.40 0.0 0 0 191.58 268.64
  L 191.57 242.67
  A 0.89 0.89 0.0 0 0 191.00 241.84
  L 189.24 241.13
  A 1.01 1.00 55.9 0 1 189.61 239.19
  L 197.73 239.19
  A 1.40 1.39 -0.0 0 1 199.13 240.58
  L 199.13 245.67
  A 0.50 0.50 0.0 0 0 199.88 246.10
  L 204.12 243.65
  A 0.94 0.94 0.0 0 0 204.46 242.37
  L 203.33 240.40
  A 0.90 0.89 -12.8 0 1 204.18 239.06
  Q 205.78 239.18 207.59 239.18
  Z
  M 159.37 225.03
  A 0.57 0.57 0.0 0 0 159.03 226.10
  L 165.27 229.30
  A 0.94 0.94 0.0 0 0 166.41 229.09
  Q 167.97 227.34 170.69 226.16
  A 0.64 0.64 0.0 0 0 170.33 224.94
  Q 165.29 225.84 159.37 225.03
  Z
  M 256.54 225.00
  Q 248.78 225.74 244.11 224.96
  A 0.43 0.43 0.0 0 0 243.67 225.60
  Q 243.97 226.13 245.91 226.99
  C 246.99 227.46 247.84 228.44 248.63 229.20
  A 1.13 1.13 0.0 0 0 249.94 229.38
  L 256.76 225.76
  A 0.41 0.40 -61.5 0 0 256.54 225.00
  Z
  M 183.63 245.83
  C 183.54 241.19 184.30 235.49 182.41 232.67
  C 179.03 227.66 173.01 227.29 168.75 231.50
  A 1.39 1.38 49.4 0 0 168.62 233.31
  Q 172.88 238.96 172.82 245.61
  A 0.89 0.89 0.0 0 0 173.71 246.51
  L 182.92 246.56
  A 0.71 0.71 0.0 0 0 183.63 245.83
  Z
  M 231.39 245.86
  A 0.71 0.71 0.0 0 0 232.10 246.59
  L 241.37 246.59
  A 0.90 0.90 0.0 0 0 242.27 245.69
  Q 242.24 239.00 246.55 233.34
  A 1.40 1.38 -49.1 0 0 246.43 231.52
  C 242.17 227.27 236.11 227.61 232.69 232.63
  C 230.77 235.46 231.51 241.19 231.39 245.86
  Z
  M 199.80 269.91
  L 215.50 269.99
  A 0.68 0.68 0.0 0 0 216.18 269.31
  L 216.26 254.51
  A 8.56 8.49 -89.7 0 0 207.81 245.91
  L 207.73 245.91
  A 8.56 8.49 -89.7 0 0 199.20 254.43
  L 199.12 269.23
  A 0.68 0.68 0.0 0 0 199.80 269.91
  Z
  M 177.15 249.83
  A 0.28 0.28 0.0 0 0 176.90 250.25
  Q 178.97 254.10 179.01 256.99
  Q 179.10 263.82 179.00 268.73
  A 1.23 1.22 -89.5 0 0 180.22 269.98
  L 182.48 269.98
  A 1.15 1.15 0.0 0 0 183.62 268.82
  L 183.56 250.38
  A 0.58 0.57 -0.2 0 0 182.98 249.81
  L 177.15 249.83
  Z
  M 237.92 249.82
  L 232.08 249.82
  A 0.58 0.57 0.0 0 0 231.50 250.39
  L 231.50 268.86
  A 1.15 1.15 0.0 0 0 232.65 270.01
  L 234.91 270.01
  A 1.23 1.22 89.3 0 0 236.13 268.75
  Q 236.01 263.83 236.08 256.99
  Q 236.11 254.10 238.17 250.24
  A 0.28 0.28 0.0 0 0 237.92 249.82
  Z
  M 207.60 294.38
  C 221.07 294.39 232.43 286.42 237.52 274.10
  A 0.61 0.60 -79.3 0 0 236.96 273.27
  Q 233.29 273.31 207.60 273.30
  Q 181.92 273.30 178.24 273.25
  A 0.61 0.60 79.4 0 0 177.68 274.08
  C 182.77 286.41 194.12 294.38 207.60 294.38
  Z"
/>
<path fill="#005826" d="
  M 200.34 166.70
  A 0.92 0.92 0.0 0 0 201.26 165.70
  Q 200.96 162.16 202.77 160.99
  A 1.11 1.11 0.0 0 0 202.82 159.17
  L 201.52 158.21
  A 0.79 0.79 0.0 0 1 201.30 157.20
  Q 204.07 152.16 206.32 150.56
  A 1.14 1.14 0.0 0 0 206.80 149.63
  L 206.86 143.46
  A 0.63 0.62 -85.3 0 1 207.58 142.84
  L 207.64 142.85
  A 0.77 0.75 -84.9 0 1 208.24 143.59
  L 208.29 149.37
  A 1.33 1.30 19.8 0 0 208.77 150.36
  Q 211.51 152.59 213.77 156.96
  A 1.03 1.02 -46.0 0 1 213.78 157.87
  Q 213.39 158.65 212.37 159.25
  A 1.04 1.03 48.8 0 0 212.26 160.96
  Q 214.47 162.66 214.09 165.86
  A 0.72 0.72 0.0 0 0 214.80 166.66
  L 219.39 166.66
  A 0.79 0.78 87.6 0 1 220.17 167.38
  L 220.39 170.17
  A 1.23 1.21 -77.3 0 0 220.99 171.13
  Q 221.41 171.37 222.47 171.94
  A 1.22 1.17 46.7 0 1 222.45 174.09
  Q 221.78 174.38 220.72 174.40
  Q 204.16 174.78 192.94 174.41
  A 1.05 1.04 -89.2 0 1 191.93 173.36
  L 191.93 172.52
  A 1.06 1.05 -90.0 0 1 192.98 171.46
  L 194.45 171.46
  A 0.71 0.70 -0.0 0 0 195.16 170.76
  L 195.16 167.18
  A 0.48 0.47 -90.0 0 1 195.63 166.70
  L 200.34 166.70
  Z
  M 205.1182 161.7905
  A 2.70 0.86 -91.1 0 0 204.3102 164.5065
  A 2.70 0.86 -91.1 0 0 205.2218 167.1895
  A 2.70 0.86 -91.1 0 0 206.0298 164.4735
  A 2.70 0.86 -91.1 0 0 205.1182 161.7905
  Z
  M 209.7244 161.7124
  A 2.76 1.13 -92.4 0 0 208.7110 164.5173
  A 2.76 1.13 -92.4 0 0 209.9556 167.2276
  A 2.76 1.13 -92.4 0 0 210.9690 164.4227
  A 2.76 1.13 -92.4 0 0 209.7244 161.7124
  Z"
/>
<path fill="#005826" d="
  M 45.89 235.07
  A 0.53 0.52 -48.1 0 1 45.85 234.25
  L 69.80 212.71
  A 0.48 0.48 0.0 0 0 69.76 211.96
  Q 69.48 211.76 68.78 211.79
  Q 50.63 212.63 50.53 212.64
  C 47.41 213.02 47.07 214.62 46.47 217.18
  A 0.40 0.39 50.0 0 1 45.69 217.11
  L 45.18 207.03
  A 0.45 0.45 0.0 0 1 46.04 206.84
  L 46.97 209.16
  A 2.56 2.55 -11.6 0 0 49.40 210.76
  Q 52.92 210.69 71.15 209.77
  C 73.27 209.66 74.87 209.19 75.40 207.27
  A 1.74 1.46 11.2 0 0 73.89 205.39
  Q 61.16 203.57 55.99 202.78
  C 49.56 201.81 46.18 197.30 46.64 190.87
  C 47.11 184.16 50.14 178.32 57.75 178.81
  Q 59.98 178.95 76.96 181.37
  A 2.30 2.30 0.0 0 0 79.35 180.09
  Q 79.84 179.06 80.90 178.08
  A 0.88 0.88 0.0 0 0 80.53 176.58
  L 72.69 174.52
  A 0.23 0.22 5.5 0 1 72.52 174.32
  L 72.50 173.97
  A 0.40 0.40 0.0 0 1 72.92 173.55
  Q 80.12 173.86 83.02 168.23
  Q 84.81 164.75 82.62 162.18
  A 3.48 3.32 58.1 0 0 78.75 161.18
  C 73.61 163.29 70.21 171.54 64.02 172.90
  Q 58.06 174.20 54.55 169.27
  C 50.45 163.53 52.89 158.07 56.88 152.98
  A 1.53 1.52 57.8 0 0 57.17 151.70
  Q 56.94 150.68 56.02 149.44
  A 0.43 0.43 0.0 0 1 56.49 148.77
  L 67.23 151.77
  A 0.51 0.51 0.0 0 1 67.18 152.77
  Q 67.11 152.78 63.78 153.05
  Q 58.11 153.51 55.28 158.78
  Q 54.15 160.87 54.51 162.74
  C 55.08 165.69 57.72 167.82 60.70 166.40
  C 65.67 164.02 68.61 157.25 74.27 155.43
  Q 78.39 154.11 81.85 156.53
  C 86.45 159.75 87.03 165.52 84.18 170.20
  Q 83.58 171.18 81.54 173.57
  A 1.16 1.16 0.0 0 0 81.34 174.77
  Q 81.60 175.43 82.14 175.92
  A 0.72 0.72 0.0 0 1 82.14 176.98
  L 81.68 177.39
  A 0.84 0.80 -17.0 0 0 81.42 177.85
  L 78.79 193.88
  A 0.15 0.15 0.0 0 1 78.64 194.01
  L 78.37 194.03
  A 0.29 0.29 0.0 0 1 78.07 193.73
  C 78.22 191.01 78.69 189.35 75.16 188.87
  Q 66.55 187.70 60.63 186.87
  C 56.40 186.28 52.28 185.31 50.13 188.61
  Q 48.89 190.52 48.91 192.94
  Q 48.98 199.25 55.92 200.60
  Q 58.81 201.16 72.00 202.89
  C 75.12 203.30 76.71 202.70 77.17 199.63
  A 0.39 0.39 0.0 0 1 77.65 199.31
  L 78.11 199.43
  A 0.32 0.32 0.0 0 1 78.34 199.80
  Q 76.58 207.70 77.49 215.11
  A 1.51 1.50 65.6 0 1 77.01 216.40
  L 59.80 231.88
  A 0.39 0.39 0.0 0 0 60.08 232.56
  L 74.45 231.83
  A 1.86 1.83 21.5 0 0 75.65 231.32
  Q 76.97 230.08 77.08 227.71
  A 0.38 0.37 6.1 0 1 77.52 227.36
  L 77.85 227.41
  A 0.31 0.30 -86.6 0 1 78.10 227.70
  L 78.58 237.09
  A 0.41 0.41 0.0 0 1 77.87 237.40
  Q 77.22 236.74 76.73 235.33
  A 2.34 2.33 -10.9 0 0 74.40 233.76
  L 46.31 235.19
  A 0.61 0.51 49.7 0 1 46.13 235.16
  Q 45.94 235.09 45.89 235.07
  Z"
/>
<path fill="#005826" d="
  M 361.88 149.12
  L 362.37 149.06
  A 0.31 0.30 -11.1 0 1 362.70 149.28
  L 367.62 166.05
  A 0.34 0.34 0.0 0 1 367.00 166.32
  C 365.68 164.07 365.14 161.65 362.25 162.44
  Q 359.02 163.34 355.97 164.40
  A 6.08 6.05 13.3 0 0 353.72 165.78
  Q 353.00 166.49 342.15 177.39
  Q 339.99 179.57 340.05 182.35
  A 0.96 0.95 85.4 0 0 341.13 183.27
  L 347.74 182.44
  A 0.45 0.45 0.0 0 1 348.08 183.24
  Q 347.98 183.32 345.89 184.42
  Q 340.72 187.14 342.78 193.16
  A 0.70 0.69 76.2 0 0 343.53 193.62
  Q 349.92 192.72 367.40 190.46
  C 370.23 190.10 371.28 188.82 370.96 186.10
  A 0.44 0.44 0.0 0 1 371.34 185.61
  L 371.63 185.57
  A 0.18 0.18 0.0 0 1 371.83 185.73
  L 373.85 201.46
  A 0.45 0.44 -57.1 0 1 372.98 201.65
  L 372.37 199.56
  A 2.34 2.33 -11.8 0 0 369.82 197.90
  L 344.44 201.16
  A 0.70 0.68 -4.6 0 0 343.83 201.86
  Q 343.90 204.81 345.12 206.95
  C 346.48 209.34 349.21 209.09 351.34 209.88
  A 0.54 0.54 0.0 0 1 351.21 210.93
  L 343.52 211.81
  A 0.47 0.47 0.0 0 1 343.00 211.27
  Q 343.02 211.18 339.69 186.15
  Q 339.50 184.70 339.65 183.84
  C 339.85 182.63 338.84 181.60 338.54 180.30
  Q 337.25 174.72 335.02 168.67
  A 0.44 0.44 0.0 0 1 335.31 168.10
  L 335.57 168.03
  A 0.24 0.22 -24.0 0 1 335.83 168.12
  L 336.99 169.89
  A 1.12 1.12 0.0 0 0 338.70 170.10
  L 348.93 160.40
  A 0.91 0.91 0.0 0 0 348.53 158.86
  L 334.82 155.26
  A 1.06 1.05 18.0 0 0 333.57 155.89
  Q 333.10 157.07 333.41 158.98
  A 0.53 0.53 0.0 0 1 332.89 159.59
  L 332.85 159.59
  A 0.70 0.68 86.5 0 1 332.30 159.09
  L 330.00 150.85
  A 0.46 0.46 0.0 0 1 330.77 150.41
  L 332.47 152.21
  A 2.48 2.37 -13.1 0 0 333.62 152.89
  L 351.16 157.50
  A 1.32 1.24 -42.3 0 0 351.73 157.51
  Q 353.70 157.05 359.60 155.21
  C 363.08 154.12 362.52 152.13 361.67 149.45
  A 0.26 0.26 0.0 0 1 361.88 149.12
  Z"
/>
<path fill="#005826" d="
  M 202.60 194.04
  A 0.85 0.84 -8.0 0 0 203.68 194.85
  Q 207.73 193.65 211.43 195.04
  A 0.89 0.89 0.0 0 0 212.63 194.21
  L 212.63 179.17
  A 0.65 0.64 88.6 0 1 213.24 178.52
  L 219.59 178.20
  A 0.62 0.62 0.0 0 1 220.25 178.82
  L 220.25 229.07
  A 1.11 1.10 -90.0 0 0 221.35 230.18
  L 222.67 230.18
  A 0.74 0.74 0.0 0 1 223.41 230.92
  L 223.41 236.67
  A 1.28 1.27 90.0 0 1 222.14 237.95
  L 192.95 237.95
  A 1.10 1.10 0.0 0 1 191.85 236.85
  L 191.85 231.06
  A 0.90 0.90 0.0 0 1 192.88 230.17
  Q 194.92 230.47 194.93 228.54
  Q 195.01 198.09 194.80 192.02
  Q 194.49 182.88 194.89 178.84
  A 0.87 0.85 2.5 0 1 195.75 178.07
  L 201.97 178.07
  A 0.63 0.63 0.0 0 1 202.60 178.70
  L 202.60 194.04
  Z
  M 203.53 221.85
  L 211.69 221.79
  A 0.83 0.83 0.0 0 0 212.51 220.96
  L 212.38 201.47
  A 4.90 4.82 -0.4 0 0 207.44 196.68
  L 207.42 196.68
  A 4.90 4.82 -0.4 0 0 202.56 201.53
  L 202.69 221.02
  A 0.83 0.83 0.0 0 0 203.53 221.85
  Z
  M 212.6475 226.2812
  A 0.95 0.95 0.0 0 0 211.6958 225.3328
  L 203.4958 225.3472
  A 0.95 0.95 0.0 0 0 202.5475 226.2988
  L 202.5525 229.1988
  A 0.95 0.95 0.0 0 0 203.5042 230.1472
  L 211.7042 230.1328
  A 0.95 0.95 0.0 0 0 212.6525 229.1812
  L 212.6475 226.2812
  Z"
/>
<ellipse fill="#005826" cx="0.00" cy="0.00" transform="translate(207.62,185.51) rotate(-84.9)" rx="3.29" ry="2.87"/>
<rect fill="#005826" x="-1.41" y="-7.54" transform="translate(207.56,209.95) rotate(-0.3)" width="2.82" height="15.08" rx="1.35"/>
<path fill="#005826" d="
  M 356.93 217.38
  Q 365.23 217.49 367.42 217.50
  C 370.73 217.52 372.07 216.67 371.93 213.45
  A 0.30 0.29 -1.8 0 1 372.23 213.14
  L 372.60 213.14
  A 0.25 0.25 0.0 0 1 372.85 213.39
  L 372.85 229.24
  A 0.33 0.33 0.0 0 1 372.52 229.57
  L 372.24 229.57
  A 0.37 0.36 89.2 0 1 371.88 229.21
  Q 371.74 224.80 367.50 225.13
  Q 366.95 225.17 356.84 225.04
  Q 346.72 224.92 346.17 224.86
  Q 341.95 224.42 341.69 228.83
  A 0.37 0.36 -87.7 0 1 341.32 229.18
  L 341.04 229.17
  A 0.33 0.33 0.0 0 1 340.72 228.83
  L 341.13 212.99
  A 0.25 0.25 0.0 0 1 341.38 212.74
  L 341.75 212.75
  A 0.30 0.29 3.2 0 1 342.04 213.07
  C 341.82 216.28 343.14 217.17 346.45 217.24
  Q 348.64 217.28 356.93 217.38
  Z"
/>
<path fill="#005826" d="
  M 348.72 233.41
  L 348.68 233.65
  A 0.57 0.57 0.0 0 1 348.17 234.13
  Q 342.61 234.56 339.97 238.41
  C 338.00 241.27 337.64 244.95 340.88 246.93
  C 343.49 248.53 346.51 245.27 347.94 243.20
  C 350.65 239.26 354.64 233.38 359.63 233.15
  Q 365.34 232.90 368.33 237.67
  C 371.56 242.81 369.64 247.80 366.66 252.69
  A 1.25 1.22 -44.9 0 0 366.64 253.96
  L 367.85 256.06
  A 0.49 0.48 -10.4 0 1 367.35 256.78
  L 356.49 254.99
  A 0.55 0.55 0.0 0 1 356.50 253.90
  C 361.78 253.16 365.91 251.87 367.73 246.22
  Q 368.45 243.96 367.69 242.14
  C 365.72 237.41 361.18 238.79 358.66 242.16
  Q 355.16 246.82 352.91 249.35
  C 348.26 254.58 340.59 254.30 337.39 247.59
  C 335.19 242.98 337.06 238.80 339.98 234.81
  A 0.89 0.88 42.1 0 0 339.92 233.71
  L 338.68 232.33
  A 0.51 0.51 0.0 0 1 339.14 231.48
  L 348.44 233.01
  A 0.35 0.34 -80.9 0 1 348.72 233.41
  Z"
/>
<path fill="#005826" d="
  M 79.22 245.14
  A 0.41 0.41 0.0 0 1 80.01 245.02
  L 85.55 258.81
  A 0.52 0.51 83.8 0 1 84.99 259.51
  L 84.60 259.45
  A 0.65 0.64 -7.1 0 1 84.13 259.09
  Q 83.41 257.52 82.76 257.19
  C 81.85 256.72 76.51 263.53 72.17 268.62
  A 0.45 0.45 0.0 0 0 72.44 269.35
  L 86.62 271.68
  A 1.39 1.39 0.0 0 0 88.20 269.99
  L 87.62 267.56
  A 0.51 0.50 9.6 0 1 88.39 267.02
  Q 89.12 267.49 89.29 267.98
  Q 90.78 272.11 92.20 275.65
  A 0.43 0.43 0.0 0 1 91.54 276.16
  L 89.68 274.78
  A 3.63 3.55 -21.5 0 0 88.11 274.12
  L 70.99 271.31
  A 3.21 3.17 -50.5 0 0 69.33 271.48
  Q 64.73 273.29 61.62 274.54
  C 59.20 275.52 59.52 277.81 60.58 279.64
  A 0.26 0.26 0.0 0 1 60.42 280.02
  L 59.66 280.20
  A 0.11 0.10 74.4 0 1 59.54 280.13
  L 53.29 264.58
  A 0.49 0.48 -21.6 0 1 53.57 263.95
  L 53.83 263.84
  A 0.27 0.27 0.0 0 1 54.17 263.97
  C 55.43 266.44 56.25 268.26 59.40 266.91
  C 62.48 265.60 65.33 265.17 67.72 262.24
  Q 72.58 256.30 77.62 250.13
  Q 78.99 248.47 79.22 245.14
  Z"
/>
<path fill="#005826" d="
  M 360.56 276.58
  L 354.78 291.09
  A 0.51 0.50 21.2 0 1 354.13 291.37
  L 353.86 291.26
  A 0.48 0.47 20.3 0 1 353.58 290.67
  Q 354.33 288.46 353.89 287.12
  A 1.26 1.25 2.3 0 0 353.18 286.36
  L 329.74 277.03
  A 1.79 1.79 0.0 0 0 328.51 277.00
  Q 327.14 277.46 325.88 279.15
  A 0.39 0.38 75.5 0 1 325.22 278.76
  Q 327.59 273.47 330.41 265.92
  C 331.60 262.76 333.63 258.09 336.68 256.37
  C 342.88 252.85 350.06 257.73 348.57 264.88
  A 0.45 0.45 0.0 0 0 349.15 265.40
  Q 353.41 263.96 361.06 262.32
  C 363.14 261.87 364.39 261.14 366.16 259.84
  A 0.49 0.49 0.0 0 1 366.90 260.42
  L 363.74 268.37
  A 1.72 1.72 0.0 0 1 362.56 269.39
  L 346.92 273.11
  A 1.28 1.28 0.0 0 0 346.74 275.54
  L 355.57 279.05
  A 2.31 2.31 0.0 0 0 358.28 278.28
  L 359.84 276.18
  A 0.42 0.41 -15.9 0 1 360.56 276.58
  Z
  M 332.07 269.78
  L 342.81 274.01
  A 1.07 1.07 0.0 0 0 344.20 273.41
  L 345.09 271.14
  A 5.99 5.79 -68.5 0 0 341.90 263.45
  L 339.94 262.68
  A 5.99 5.79 -68.5 0 0 332.36 266.13
  L 331.47 268.40
  A 1.07 1.07 0.0 0 0 332.07 269.78
  Z"
/>
<rect fill="#005826" x="-1.27" y="-4.43" transform="translate(193.11,281.68) rotate(23.1)" width="2.54" height="8.86" rx="1.22"/>
<path fill="#005826" d="
  M 201.62 281.22
  Q 202.48 280.20 202.00 278.97
  A 0.49 0.49 0.0 0 0 201.23 278.77
  Q 200.14 279.71 200.95 280.96
  A 0.49 0.48 -27.4 0 1 200.72 281.67
  Q 199.78 282.05 198.51 282.04
  A 0.63 0.63 0.0 0 1 197.89 281.37
  Q 198.01 279.41 198.84 278.23
  A 1.27 1.27 0.0 0 1 199.88 277.69
  L 203.40 277.69
  A 1.13 1.13 0.0 0 1 204.53 278.82
  L 204.53 283.96
  A 1.64 1.63 -90.0 0 1 202.90 285.60
  L 197.40 285.60
  A 0.80 0.80 0.0 0 1 196.67 284.48
  L 196.78 284.22
  A 0.92 0.92 0.0 0 1 197.62 283.67
  L 201.09 283.67
  A 0.88 0.88 0.0 0 0 201.93 282.51
  Q 201.80 282.14 201.69 282.04
  A 0.58 0.57 -50.2 0 1 201.62 281.22
  Z"
/>
<path fill="#005826" d="
  M 214.11 285.54
  L 208.22 285.54
  A 1.17 1.17 0.0 0 1 207.59 283.39
  Q 211.03 281.17 211.42 280.62
  A 0.74 0.74 0.0 0 0 210.60 279.49
  Q 209.09 279.96 208.65 280.34
  A 1.09 0.93 70.4 0 1 207.07 279.43
  Q 206.99 278.09 207.87 277.88
  Q 210.23 277.31 212.68 277.92
  A 1.11 1.10 86.1 0 1 213.42 278.57
  Q 214.59 281.45 212.21 282.50
  A 0.64 0.64 0.0 0 0 212.35 283.71
  Q 213.37 283.90 214.39 283.72
  A 0.58 0.58 0.0 0 1 215.07 284.29
  L 215.07 284.58
  A 0.96 0.96 0.0 0 1 214.11 285.54
  Z"
/>
<path fill="#005826" d="
  M 224.21 285.33
  A 1.11 1.00 -36.0 0 1 222.51 285.15
  Q 221.38 282.83 218.50 283.40
  A 1.41 1.41 0.0 0 1 216.89 281.57
  Q 217.63 279.37 218.72 278.22
  A 1.60 1.49 -33.3 0 1 221.33 278.67
  Q 222.03 280.79 223.89 281.65
  C 225.65 282.47 225.25 284.33 224.21 285.33
  Z
  M 220.39 281.18
  A 0.62 0.62 0.0 0 0 219.77 280.56
  A 0.62 0.62 0.0 0 0 219.15 281.18
  A 0.62 0.62 0.0 0 0 219.77 281.80
  A 0.62 0.62 0.0 0 0 220.39 281.18
  Z"
/>
<path fill="#005826" d="
  M 342.28 291.90
  A 0.28 0.28 0.0 0 1 342.70 291.54
  L 350.02 296.96
  A 0.96 0.96 0.0 0 1 350.22 298.30
  L 334.05 320.12
  A 0.36 0.36 0.0 0 1 333.78 320.27
  L 333.24 320.30
  A 0.32 0.32 0.0 0 1 332.94 319.84
  L 334.22 317.15
  A 1.90 1.90 0.0 0 0 333.51 314.71
  Q 333.29 314.55 314.91 300.98
  Q 313.95 300.27 313.93 300.25
  Q 312.11 298.67 310.89 300.57
  Q 309.87 302.19 310.37 304.58
  Q 310.60 305.63 318.42 334.02
  Q 318.49 334.28 318.37 334.88
  A 0.58 0.57 18.9 0 1 317.54 335.28
  Q 310.48 331.64 293.34 322.99
  C 289.31 320.96 287.94 319.83 284.27 321.39
  A 1.25 1.25 0.0 0 0 283.65 323.13
  Q 287.87 331.04 296.14 345.12
  Q 297.40 347.28 300.92 345.50
  A 0.64 0.64 0.0 0 1 301.78 345.76
  L 301.89 345.99
  A 0.30 0.30 0.0 0 1 301.78 346.39
  L 287.50 354.63
  A 0.36 0.35 -35.2 0 1 287.05 354.56
  L 286.83 354.32
  A 0.43 0.42 48.4 0 1 286.86 353.72
  L 288.84 351.94
  A 2.07 2.07 0.0 0 0 289.26 349.39
  Q 288.39 347.85 277.70 329.04
  C 275.07 324.43 272.94 327.75 270.41 329.77
  A 2.32 2.31 -29.4 0 0 269.68 332.36
  L 279.41 359.21
  A 0.38 0.38 0.0 0 1 278.86 359.66
  L 250.47 343.27
  A 0.23 0.23 0.0 0 0 250.13 343.43
  Q 250.06 343.80 250.18 344.12
  Q 253.51 352.87 256.55 361.45
  Q 257.81 365.00 261.96 363.56
  A 0.52 0.51 -8.4 0 1 262.65 364.07
  L 262.64 364.19
  A 1.04 1.04 0.0 0 1 261.95 365.11
  Q 255.42 367.31 252.89 368.38
  Q 252.58 368.52 252.10 368.37
  A 0.43 0.43 0.0 0 1 251.94 367.64
  L 254.14 365.66
  A 2.58 2.56 59.0 0 0 254.83 362.86
  Q 249.48 348.30 247.85 343.48
  C 246.83 340.47 245.27 338.55 242.02 339.76
  A 2.43 2.43 0.0 0 0 240.47 342.44
  Q 241.24 347.02 242.88 358.87
  C 243.09 360.38 243.16 364.23 242.46 365.83
  C 240.30 370.77 235.32 372.64 230.14 372.83
  C 221.42 373.14 219.26 367.66 218.31 359.62
  Q 217.63 353.84 216.22 345.38
  A 2.07 2.07 0.0 0 0 214.30 343.65
  L 212.27 343.53
  A 0.63 0.63 0.0 0 1 211.68 342.89
  L 211.68 342.86
  A 0.53 0.52 -0.1 0 1 212.12 342.43
  L 227.97 340.07
  A 0.25 0.24 83.6 0 1 228.25 340.30
  L 228.27 340.62
  A 0.72 0.71 78.8 0 1 227.81 341.32
  L 225.38 342.19
  A 1.85 1.84 -12.8 0 0 224.18 344.09
  Q 224.31 345.45 226.72 361.92
  C 227.40 366.52 229.02 370.60 234.26 369.54
  C 240.78 368.22 241.09 363.44 240.33 357.74
  Q 239.39 350.61 238.23 343.53
  Q 237.63 339.88 234.04 340.76
  A 0.68 0.68 0.0 0 1 233.20 340.19
  L 233.16 339.88
  A 0.35 0.35 0.0 0 1 233.40 339.50
  C 235.98 338.57 238.73 338.69 241.36 338.05
  Q 245.48 337.05 250.81 334.94
  A 1.41 1.40 49.0 0 1 252.03 335.03
  L 272.40 346.79
  A 0.11 0.11 0.0 0 0 272.55 346.66
  L 267.73 333.35
  A 2.69 2.69 0.0 0 0 265.05 331.58
  L 262.52 331.70
  A 0.50 0.50 0.0 0 1 262.32 330.74
  L 268.35 328.50
  A 4.70 4.44 -11.2 0 0 268.95 328.22
  L 289.12 316.85
  Q 289.13 316.84 289.14 316.83
  L 295.86 310.86
  A 0.65 0.64 32.6 0 1 296.48 310.73
  L 296.81 310.83
  A 0.36 0.36 0.0 0 1 296.99 311.39
  L 295.33 313.63
  A 1.32 1.32 0.0 0 0 295.79 315.59
  L 312.78 324.31
  A 0.51 0.50 -84.9 0 0 313.49 323.71
  L 308.33 306.13
  A 1.56 1.56 0.0 0 0 306.30 305.10
  L 303.47 306.12
  A 0.56 0.56 0.0 0 1 302.95 305.14
  Q 308.69 301.00 312.62 295.37
  Q 318.01 287.64 323.35 280.80
  A 1.26 1.25 -52.7 0 1 325.07 280.56
  L 331.33 285.21
  A 0.73 0.72 -74.3 0 1 331.63 285.76
  L 331.65 286.11
  A 0.37 0.37 0.0 0 1 331.12 286.46
  Q 325.18 283.58 322.06 286.56
  Q 319.75 288.77 317.59 291.98
  A 0.98 0.98 0.0 0 0 317.82 293.32
  L 326.69 299.90
  A 0.57 0.57 0.0 0 0 327.42 299.84
  C 330.82 296.38 328.02 293.69 325.65 290.91
  A 0.60 0.58 55.7 0 1 325.81 290.00
  Q 326.19 289.81 326.51 290.05
  Q 333.30 295.09 339.09 299.36
  A 0.61 0.60 -56.9 0 1 339.25 300.16
  L 339.24 300.17
  A 0.66 0.64 -63.4 0 1 338.43 300.45
  C 334.80 298.91 331.31 296.91 329.30 301.17
  A 0.41 0.41 0.0 0 0 329.42 301.67
  Q 333.70 305.03 337.53 307.71
  C 340.49 309.79 341.85 306.29 343.34 303.84
  C 345.17 300.81 345.60 297.30 343.70 294.24
  Q 342.53 292.36 342.28 291.90
  Z"
/>
<path fill="#005826" d="
  M 79.65 311.79
  A 0.47 0.47 0.0 0 1 78.79 312.11
  L 70.61 299.59
  A 0.40 0.40 0.0 0 1 71.18 299.05
  L 73.70 300.92
  A 1.07 1.07 0.0 0 0 75.20 300.70
  L 78.25 296.58
  A 1.61 1.61 0.0 0 0 78.31 294.74
  L 73.34 287.13
  A 1.79 1.78 -24.7 0 0 71.35 286.40
  L 67.27 287.60
  A 1.60 1.60 0.0 0 0 66.30 289.88
  Q 67.21 291.61 67.35 292.13
  A 0.67 0.67 0.0 0 1 66.13 292.66
  Q 62.54 286.92 61.13 285.17
  Q 60.76 284.72 60.69 284.19
  A 0.49 0.49 0.0 0 1 61.43 283.71
  Q 64.52 285.59 68.43 284.95
  Q 80.23 283.00 96.69 280.67
  A 0.56 0.56 0.0 0 1 97.24 281.53
  Q 93.61 287.01 82.82 303.39
  C 80.92 306.28 79.18 308.13 79.65 311.79
  Z
  M 75.78 285.84
  A 0.60 0.60 0.0 0 0 75.38 286.76
  L 79.57 293.18
  A 0.60 0.60 0.0 0 0 80.58 293.17
  L 85.80 285.18
  A 0.60 0.60 0.0 0 0 85.20 284.26
  L 75.78 285.84
  Z"
/>
<path fill="#005826" d="
  M 110.92 298.74
  Q 115.09 303.15 120.31 308.77
  A 0.64 0.64 0.0 0 1 120.28 309.68
  L 114.70 314.98
  A 0.62 0.62 0.0 0 1 113.66 314.45
  Q 113.74 313.89 114.43 312.85
  C 116.63 309.52 115.72 306.32 112.45 303.77
  A 0.87 0.86 41.7 0 0 111.33 303.83
  L 92.91 321.29
  A 1.97 1.96 -38.3 0 0 92.61 323.79
  L 94.05 326.00
  A 0.47 0.47 0.0 0 1 94.11 326.39
  Q 93.89 327.15 92.92 326.35
  Q 92.40 325.92 87.59 320.85
  Q 82.79 315.78 82.39 315.24
  Q 81.64 314.23 82.41 314.05
  A 0.47 0.47 0.0 0 1 82.80 314.13
  L 84.93 315.69
  A 1.97 1.96 -48.7 0 0 87.44 315.52
  L 105.86 298.06
  A 0.87 0.86 51.4 0 0 105.98 296.94
  C 103.61 293.54 100.46 292.46 97.02 294.48
  Q 95.94 295.12 95.38 295.17
  A 0.62 0.62 0.0 0 1 94.90 294.10
  L 100.50 288.81
  A 0.64 0.64 0.0 0 1 101.40 288.83
  Q 106.74 294.34 110.92 298.74
  Z"
/>
<path fill="#005826" d="
  M 134.61 355.08
  L 137.22 355.51
  A 2.40 2.40 0.0 0 0 139.84 354.02
  L 148.75 331.71
  A 2.84 2.84 0.0 0 0 147.79 328.37
  L 147.61 328.23
  A 1.81 1.81 0.0 0 0 144.81 328.97
  Q 143.51 332.13 141.82 334.43
  A 0.64 0.64 0.0 0 1 140.69 333.85
  Q 143.12 326.52 137.78 322.25
  C 135.03 320.04 130.70 320.97 130.67 325.21
  Q 130.66 326.75 132.45 329.58
  Q 135.18 333.90 136.73 336.98
  C 140.14 343.76 136.29 350.72 128.80 351.28
  C 123.32 351.68 119.87 347.99 116.62 343.86
  A 1.34 1.34 0.0 0 0 115.54 343.34
  Q 114.39 343.34 112.99 343.85
  A 0.42 0.42 0.0 0 1 112.49 343.25
  L 118.17 333.42
  A 0.78 0.78 0.0 0 1 119.59 334.02
  C 118.00 339.63 118.17 344.67 123.44 347.83
  Q 127.40 350.20 130.09 346.55
  C 132.11 343.81 128.68 338.76 126.83 336.18
  Q 126.44 335.63 124.89 332.55
  C 119.31 321.38 133.02 313.28 140.78 322.17
  Q 142.58 324.23 143.20 325.33
  A 1.11 1.10 -18.0 0 0 144.30 325.88
  L 145.85 325.68
  A 1.58 1.57 -29.7 0 1 147.00 325.99
  Q 148.68 327.31 149.10 327.47
  Q 162.10 332.51 172.35 336.85
  A 1.48 1.45 -27.2 0 0 172.64 336.94
  L 180.85 338.51
  A 1.97 1.96 81.4 0 1 182.20 339.51
  L 192.70 359.27
  A 0.37 0.36 -38.9 0 0 193.30 359.33
  Q 193.66 358.91 193.70 358.67
  Q 193.99 356.89 195.98 345.44
  A 2.45 2.44 -70.1 0 0 194.80 342.91
  L 192.20 341.42
  A 0.41 0.41 0.0 0 1 192.47 340.66
  L 202.43 342.30
  A 0.66 0.65 -81.2 0 1 202.97 343.05
  L 202.91 343.39
  A 0.34 0.33 -84.1 0 1 202.57 343.67
  Q 200.68 343.60 199.28 344.10
  A 1.28 1.28 0.0 0 0 198.49 344.97
  Q 197.79 347.70 197.70 348.20
  C 195.75 358.87 193.29 373.38 192.91 373.67
  A 0.77 0.77 0.0 0 1 191.77 373.44
  Q 182.66 357.15 176.45 345.36
  A 0.51 0.51 0.0 0 0 175.49 345.52
  Q 174.30 353.26 172.16 364.22
  C 171.47 367.77 173.68 367.64 175.88 369.17
  A 0.48 0.48 0.0 0 1 175.53 370.03
  L 165.13 368.32
  A 0.55 0.54 -89.4 0 1 164.67 367.84
  L 164.61 367.38
  A 0.34 0.33 -1.3 0 1 164.98 367.00
  C 168.57 367.36 169.63 366.31 170.28 362.76
  Q 173.57 344.75 174.01 342.62
  A 3.56 3.55 24.6 0 0 172.69 339.08
  L 171.88 338.40
  A 1.21 1.20 30.6 0 0 169.99 338.88
  L 167.72 344.58
  A 0.68 0.68 0.0 0 1 166.75 344.92
  L 166.51 344.78
  A 0.58 0.58 0.0 0 1 166.24 344.10
  C 168.36 337.27 162.66 334.89 157.46 333.15
  A 0.74 0.72 -69.7 0 0 156.55 333.58
  L 152.61 343.49
  A 1.25 1.25 0.0 0 0 153.93 345.19
  L 155.85 344.95
  A 3.96 3.95 -75.6 0 0 158.53 343.36
  Q 160.38 340.84 160.89 340.32
  A 0.59 0.59 0.0 0 1 161.86 340.95
  L 156.03 355.54
  A 0.60 0.60 0.0 0 1 155.38 355.92
  L 155.35 355.92
  A 0.75 0.74 -77.6 0 1 154.81 355.06
  C 155.48 351.72 155.74 348.71 152.46 346.97
  A 1.02 1.02 0.0 0 0 151.04 347.49
  L 147.36 356.73
  A 1.92 1.90 -61.0 0 0 147.99 358.97
  Q 149.40 360.01 152.82 361.05
  C 157.52 362.48 161.09 360.41 164.03 356.84
  A 0.53 0.53 0.0 0 1 164.70 356.72
  L 165.06 356.93
  A 0.28 0.27 -61.1 0 1 165.16 357.30
  L 160.41 365.51
  A 1.04 1.03 -64.1 0 1 159.13 365.96
  L 134.83 356.28
  A 0.11 0.09 77.6 0 1 134.78 356.24
  L 134.35 355.43
  A 0.25 0.24 -9.0 0 1 134.61 355.08
  Z"
/>
<rect fill="#005826" x="-5.97" y="-2.23" transform="translate(114.87,326.02) rotate(37.9)" width="11.94" height="4.46" rx="1.01"/>
</svg>
